<svg width="16" height="17" viewBox="0 0 16 17" fill="none" xmlns="http://www.w3.org/2000/svg">
<path d="M6 7.83301C6 8.36344 6.21071 8.87215 6.58579 9.24722C6.96086 9.62229 7.46957 9.83301 8 9.83301C8.53043 9.83301 9.03914 9.62229 9.41421 9.24722C9.78929 8.87215 10 8.36344 10 7.83301C10 7.30257 9.78929 6.79387 9.41421 6.41879C9.03914 6.04372 8.53043 5.83301 8 5.83301C7.46957 5.83301 6.96086 6.04372 6.58579 6.41879C6.21071 6.79387 6 7.30257 6 7.83301Z" stroke="black" stroke-width="1.33333" stroke-linecap="round" stroke-linejoin="round"/>
<path d="M11.7707 11.6045L8.94202 14.4331C8.69201 14.6829 8.35307 14.8232 7.99968 14.8232C7.6463 14.8232 7.30736 14.6829 7.05735 14.4331L4.22802 11.6045C3.48217 10.8586 2.97424 9.90827 2.76848 8.87371C2.56271 7.83916 2.66834 6.76681 3.07202 5.79229C3.4757 4.81777 4.15928 3.98483 5.03634 3.39881C5.9134 2.81279 6.94453 2.5 7.99935 2.5C9.05417 2.5 10.0853 2.81279 10.9624 3.39881C11.8394 3.98483 12.523 4.81777 12.9267 5.79229C13.3304 6.76681 13.436 7.83916 13.2302 8.87371C13.0245 9.90827 12.5165 10.8586 11.7707 11.6045Z" stroke="black" stroke-width="1.33333" stroke-linecap="round" stroke-linejoin="round"/>
</svg>
