<svg width="14" height="14" viewBox="0 0 14 14" fill="none" xmlns="http://www.w3.org/2000/svg">
<path d="M9 3.66667C9.35362 3.66667 9.69276 3.80714 9.94281 4.05719C10.1929 4.30724 10.3333 4.64638 10.3333 5M9 1C10.0609 1 11.0783 1.42143 11.8284 2.17157C12.5786 2.92172 13 3.93913 13 5M2.33333 1.66667H5L6.33333 5L4.66667 6C5.38064 7.44769 6.55231 8.61936 8 9.33333L9 7.66667L12.3333 9V11.6667C12.3333 12.0203 12.1929 12.3594 11.9428 12.6095C11.6928 12.8595 11.3536 13 11 13C8.39951 12.842 5.94677 11.7377 4.10455 9.89545C2.26234 8.05323 1.15803 5.60049 1 3C1 2.64638 1.14048 2.30724 1.39052 2.05719C1.64057 1.80714 1.97971 1.66667 2.33333 1.66667Z" stroke="#6A13F4" stroke-width="1.33333" stroke-linecap="round" stroke-linejoin="round"/>
</svg>
