<svg width="13" height="15" viewBox="0 0 13 15" fill="none" xmlns="http://www.w3.org/2000/svg">
<path d="M6.01384 13.3243C5.83665 13.3262 5.66088 13.2926 5.49683 13.2257C5.33278 13.1587 5.18375 13.0596 5.0585 12.9343L2.22917 10.1056C1.56874 9.44488 1.09345 8.62225 0.850886 7.72008C0.608319 6.81791 0.606981 5.86785 0.847008 4.965C1.08703 4.06215 1.56 3.23818 2.21857 2.57558C2.87714 1.91298 3.6982 1.43499 4.59957 1.18945C5.50094 0.94392 6.45099 0.939457 7.35462 1.17651C8.25826 1.41357 9.08378 1.88382 9.74854 2.5402C10.4133 3.19659 10.894 4.01607 11.1425 4.91663C11.391 5.81718 11.3986 6.76721 11.1645 7.67163M8.66667 13.6673L12 10.334M12 10.334V13.334M12 10.334H9M4 6.33398C4 6.86442 4.21071 7.37313 4.58579 7.7482C4.96086 8.12327 5.46957 8.33398 6 8.33398C6.53043 8.33398 7.03914 8.12327 7.41421 7.7482C7.78929 7.37313 8 6.86442 8 6.33398C8 5.80355 7.78929 5.29484 7.41421 4.91977C7.03914 4.5447 6.53043 4.33398 6 4.33398C5.46957 4.33398 4.96086 4.5447 4.58579 4.91977C4.21071 5.29484 4 5.80355 4 6.33398Z" stroke="#6A13F4" stroke-width="1.33333" stroke-linecap="round" stroke-linejoin="round"/>
</svg>
